<svg width="144" height="101" viewBox="0 0 144 101" fill="none" xmlns="http://www.w3.org/2000/svg"><g clip-path="url(#clip0)"><path d="M111.067 13.938H32.933l-8.94 14.478h96.013l-8.939-14.478z" fill="#CCC"/><path d="M93.918 9.031c-1.257-.455-2.162-.253-4.274 1.717-2.111 1.97-10.256 9.142-10.256 9.142s-1.961-.668-6.226-.86c0 0-.79-.045-1.161-.037-.372.008-1.161.038-1.161.038-4.265.19-6.226.859-6.226.859s-8.146-7.172-10.258-9.142c-2.112-1.97-3.017-2.172-4.273-1.717-1.256.455-1.277 1.869-1.277 1.869v33.634c2.346 12.751 16.41 16.15 22.034 17.004v.271s.423-.026 1.16-.112c.737.088 1.162.112 1.162.112v-.271c5.622-.854 19.686-4.253 22.033-17.003V10.9s-.02-1.414-1.276-1.869z" fill="#ABABAB"/><path d="M56.978 22.65s-4.605-9.855-5.542-11.284c-.936-1.429-2.189-1.994-2.63 0v18.355c.808-1.317 2.907-3.867 8.172-7.071zm30.044 0s4.607-9.855 5.543-11.284c.937-1.429 2.19-1.994 2.63 0v18.355c-.808-1.317-2.908-3.867-8.173-7.071z" fill="#878787"/><path d="M120.006 28.416H23.993V101h96.013V28.416z" fill="#E8E8E8"/><path d="M85.851 33.906H58.148c-3.765 0-6.817 3.065-6.817 6.846v2.147c0 3.781 3.052 6.846 6.817 6.846H85.85c3.765 0 6.816-3.065 6.816-6.846v-2.147c0-3.781-3.051-6.846-6.816-6.846zM32.933 13.938v14.478h-8.94l8.94-14.478zm78.133 0v14.478h8.939l-8.939-14.478z" fill="#ABABAB"/><path d="M23.994 28.416L0 11.011 13.665 0l19.268 13.938-8.94 14.478zm96.011 0l23.994-17.405L130.334 0l-19.268 13.938 8.939 14.478z" fill="#F5F5F5"/><path d="M73.886 43.861h-4.917s1.453 2.04 2.206 2.493h.352s1.456-1.078 2.359-2.493z" fill="#878787"/><path d="M71.002 46.006L68.72 49.18s.401.353.477.302c.076-.05 2.131-2.77 2.131-2.77l2.347 2.775.44-.483-2.682-3.097-.431.1z" fill="#878787"/><path d="M61.236 45.334c2.712 0 4.91-2.208 4.91-4.932s-2.198-4.933-4.91-4.933c-2.713 0-4.911 2.209-4.911 4.933 0 2.724 2.198 4.932 4.91 4.932z" fill="#E8E8E8"/><path d="M61.236 41.768c.751 0 1.36-.612 1.36-1.367s-.609-1.367-1.36-1.367c-.752 0-1.361.612-1.361 1.367s.609 1.367 1.36 1.367z" fill="#878787"/><path d="M82.11 45.334c2.713 0 4.912-2.208 4.912-4.932s-2.199-4.933-4.911-4.933c-2.712 0-4.911 2.209-4.911 4.933 0 2.724 2.199 4.932 4.91 4.932z" fill="#E8E8E8"/><path d="M82.111 41.768c.752 0 1.361-.612 1.361-1.367s-.61-1.367-1.361-1.367c-.752 0-1.361.612-1.361 1.367s.61 1.367 1.361 1.367z" fill="#878787"/></g><defs><clipPath id="clip0"><path fill="#fff" d="M0 0h144v101H0z"/></clipPath></defs></svg>